#!OML:ASF H:\Not Pregnant\Project 1\Capture day 1\Session 1\non-pregnant.ASF
:FULLY-SPECIFIED
:DEGREES
974
root -4.5733 15.7372 23.4056 -173.695 183.007 -190.36
lowerback 4.03982 3.4011 10.7854
upperback -6.3337 5.63464 2.11316
thorax -8.24971 2.15055 -4.33432
lowerneck 15.6039 -13.1812 -29.6277
upperneck -6.0523 -22.9903 39.2945
head 4.74324 -13.2033 17.7714
rclavicle 1.41199e-014 2.16675e-014
rhumerus -72.8914 -4.10888 -67.0638
rradius 16.1427
rwrist 19.2941
rhand -9.08252 -15.086
rfingers 7.12502
rthumb 16.867 -44.3735
lclavicle 1.41199e-014 2.16675e-014
lhumerus -49.2934 -23.6657 98.7565
lradius 136.46
lwrist 46.923
lhand -7.99102 -22.4222
lfingers 7.12502
lthumb 17.9175 6.77246
rfemur -10.4955 2.09548 35.9907
rtibia 27.7751
rfoot -20.1818 18.8939
rtoes -4.0623
lfemur -60.1579 13.6966 -13.7776
ltibia 99.9816
lfoot -2.72287 2.98858
ltoes -19.2877
975
root -4.56053 15.7277 23.581 -173.672 183.574 -190.338
lowerback 4.18428 3.61011 10.8454
upperback -6.352 5.93498 2.0314
thorax -8.29648 2.28677 -4.48967
lowerneck 15.654 -13.1754 -29.6468
upperneck -5.89849 -23.0317 39.2253
head 4.78067 -13.2215 17.7393
rclavicle 7.8023e-015 3.02153e-014
rhumerus -71.9021 -3.97585 -68.6921
rradius 16.303
rwrist 17.5552
rhand -9.54916 -15.611
rfingers 7.12502
rthumb 16.4178 -44.9362
lclavicle 7.8023e-015 3.02153e-014
lhumerus -50.04 -23.3398 99.0472
lradius 134.839
lwrist 47.0227
lhand -8.26535 -22.0332
lfingers 7.12502
lthumb 17.6535 7.18542
rfemur -9.42762 2.37964 35.8835
rtibia 27.2537
rfoot -20.5952 18.9038
rtoes -4.35552
lfemur -61.4298 13.5201 -13.9883
ltibia 98.6587
lfoot -3.09557 3.30793
ltoes -20.0555
976
root -4.54833 15.7175 23.7569 -173.623 184.152 -190.256
lowerback 4.30685 3.82061 10.827
upperback -6.38013 6.22799 1.94094
thorax -8.34607 2.42369 -4.61026
lowerneck 15.676 -13.1623 -29.6822
upperneck -5.73341 -23.0614 39.1525
head 4.82352 -13.2308 17.7087
rclavicle -4.91495e-014 -2.33572e-014
rhumerus -70.8507 -3.81497 -70.2997
rradius 16.5178
rwrist 15.6106
rhand -10.1057 -16.0492
rfingers 7.12502
rthumb 15.8818 -45.4179
lclavicle -4.91495e-014 -2.33572e-014
lhumerus -50.7733 -22.9512 99.324
lradius 133.125
lwrist 47.0795
lhand -8.67204 -21.7588
lfingers 7.12502
lthumb 17.2621 7.49452
rfemur -8.41947 2.73121 35.7062
rtibia 26.782
rfoot -20.9962 18.8855
rtoes -4.61352
lfemur -62.5826 13.2986 -14.2114
ltibia 97.125
lfoot -3.39077 3.6658
ltoes -20.8444
977
root -4.53678 15.7073 23.9328 -173.535 184.736 -190.107
lowerback 4.38276 4.02458 10.7158
upperback -6.41737 6.49796 1.8441
thorax -8.38806 2.55548 -4.68231
lowerneck 15.6436 -13.1535 -29.7268
upperneck -5.53324 -23.0921 39.0517
head 4.88182 -13.233 17.6592
rclavicle 5.97596e-015 -1.45113e-014
rhumerus -69.718 -3.64775 -71.7885
rradius 16.7464
rwrist 13.6864
rhand -10.6903 -16.3696
rfingers 7.12502
rthumb 15.3188 -45.7822
lclavicle 5.97596e-015 -1.45113e-014
lhumerus -51.4761 -22.4807 99.5661
lradius 131.314
lwrist 47.0954
lhand -9.19213 -21.6043
lfingers 7.12502
lthumb 16.7615 7.69212
rfemur -7.49179 3.15024 35.4536
rtibia 26.3579
rfoot -21.3656 18.8492
rtoes -4.76856
lfemur -63.6231 13.0382 -14.4531
ltibia 95.3796
lfoot -3.61023 4.06678
ltoes -21.6895
978
root -4.52596 15.6968 24.1088 -173.401 185.316 -189.921
lowerback 4.41636 4.22625 10.5499
upperback -6.46993 6.7551 1.7426
thorax -8.42849 2.68427 -4.7258
lowerneck 15.5822 -13.1376 -29.7906
upperneck -5.32313 -23.1121 38.9537
head 4.94754 -13.2274 17.6145
rclavicle -5.46658e-015 2.39536e-014
rhumerus -68.5142 -3.55378 -73.0355
rradius 16.962
rwrist 12.0042
rhand -11.2349 -16.5522
rfingers 7.12502
rthumb 14.7942 -46.0042
lclavicle -5.46658e-015 2.39536e-014
lhumerus -52.1644 -21.9538 99.7849
lradius 129.413
lwrist 47.0512
lhand -9.84112 -21.5502
lfingers 7.12502
lthumb 16.1366 7.79799
rfemur -6.6527 3.62471 35.1589
rtibia 25.9787
rfoot -21.6936 18.8043
rtoes -4.8471
lfemur -64.5574 12.7518 -14.6773
ltibia 93.4344
lfoot -3.7599 4.49921
ltoes -22.4787
979
root -4.51566 15.6855 24.2847 -173.219 185.888 -189.726
lowerback 4.40506 4.4194 10.3603
upperback -6.53746 6.99413 1.64542
thorax -8.46523 2.80598 -4.74695
lowerneck 15.4879 -13.1192 -29.8768
upperneck -5.09539 -23.1295 38.8531
head 5.0259 -13.2171 17.57
rclavicle -1.41883e-014 -1.75924e-014
rhumerus -67.2448 -3.55734 -74.0068
rradius 17.1685
rwrist 10.6859
rhand -11.6879 -16.6069
rfingers 7.12502
rthumb 14.3578 -46.0904
lclavicle -1.41883e-014 -1.75924e-014
lhumerus -52.8266 -21.3609 99.9682
lradius 127.421
lwrist 46.978
lhand -10.6079 -21.5806
lfingers 7.12502
lthumb 15.3982 7.82598
rfemur -5.89791 4.14345 34.8551
rtibia 25.6331
rfoot -21.974 18.7642
rtoes -4.87315
lfemur -65.3844 12.4526 -14.8529
ltibia 91.2989
lfoot -3.84234 4.94312
ltoes -23.2176
